<svg xmlns="http://www.w3.org/2000/svg" version="1.1" xmlns:xlink="http://www.w3.org/1999/xlink" xmlns:svgjs="http://svgjs.com/svgjs" width="4546.000000pt" height="2880.000000pt"><svg version="1.0" xmlns="http://www.w3.org/2000/svg" width="4546.000000pt" height="2880.000000pt" viewBox="0 0 4546.000000 2880.000000" preserveAspectRatio="xMidYMid meet">

<g transform="translate(0.000000,2880.000000) scale(0.100000,-0.100000)" fill="hsl(317 100% 54%)" stroke="none">
<path d="M590 26152 c-188 -228 -444 -545 -514 -635 -67 -86 -68 -89 -50 -107
22 -21 941 -782 1394 -1155 608 -500 990 -822 990 -835 0 -11 -101 -147 -239
-320 -207 -261 -414 -514 -1283 -1562 l-38 -46 197 -164 c390 -324 604 -498
613 -498 59 0 181 123 491 495 161 193 854 1033 1003 1215 l115 139 53 -36
c193 -132 1068 -829 1673 -1333 313 -261 455 -387 455 -404 0 -22 -76 -170
-144 -280 -346 -559 -643 -1364 -781 -2110 -93 -505 -122 -1537 -59 -2111 133
-1224 510 -2239 1147 -3091 274 -367 689 -798 1092 -1134 639 -533 1377 -916
2195 -1140 322 -88 518 -126 805 -154 531 -53 1333 -45 1756 19 308 46 792
184 1171 334 431 171 707 320 1030 557 l153 112 6 -106 c4 -59 10 -254 14
-434 l8 -328 1273 0 1274 0 -2 3523 -3 3522 -2230 0 -2230 0 -3 -1292 -2
-1293 875 0 875 0 0 -502 -1 -503 -112 -82 c-649 -470 -1255 -705 -2004 -778
-187 -19 -623 -21 -798 -5 -486 44 -869 151 -1260 350 -351 178 -567 342 -901
682 -336 343 -506 579 -664 928 -234 514 -353 1051 -367 1660 -26 1104 321
2071 982 2736 77 77 176 169 220 204 214 174 546 362 820 465 452 171 854 238
1510 252 471 9 759 -16 1086 -96 661 -160 1350 -469 1859 -832 151 -108 243
-163 260 -157 10 3 174 256 597 918 160 250 412 646 562 879 149 233 271 427
271 431 0 5 -46 46 -102 93 -368 301 -988 693 -1396 881 -766 353 -1618 565
-2612 648 -247 21 -1074 17 -1320 -5 -944 -87 -1687 -292 -2440 -673 -477
-241 -876 -513 -1337 -911 -153 -132 -289 -237 -340 -261 -29 -14 -33 -13 -64
9 -158 112 -1944 1576 -2036 1668 -40 39 -41 54 -7 117 54 102 166 242 928
1157 324 390 585 712 579 715 -5 4 -70 59 -144 123 -74 63 -262 222 -418 353
-272 228 -285 237 -301 219 -10 -10 -206 -247 -436 -528 -748 -913 -1122
-1355 -1147 -1355 -14 0 -419 324 -837 669 -1097 905 -1593 1311 -1601 1311
-2 0 -51 -58 -109 -128z"></path>
<path d="M18300 22330 l0 -1170 1460 0 1460 0 0 1170 0 1170 -1460 0 -1460 0
0 -1170z"></path>
<path d="M30720 19658 c0 -3677 9 -5428 30 -5883 28 -615 217 -1260 491 -1680
99 -152 189 -263 310 -381 156 -151 267 -229 547 -384 79 -44 112 -67 112 -80
0 -53 53 -622 71 -758 89 -687 267 -1318 510 -1803 76 -153 139 -261 244 -424
l73 -112 -192 -177 c-280 -259 -435 -369 -630 -446 -185 -74 -363 -102 -656
-104 -189 -1 -197 0 -274 27 -115 41 -305 140 -394 206 -230 171 -362 402
-408 712 -22 152 -15 420 16 562 69 323 200 569 424 793 180 179 375 300 626
385 116 39 167 63 203 97 66 63 4 93 -151 74 -375 -48 -806 -343 -1124 -769
-93 -125 -149 -217 -258 -423 -221 -420 -537 -858 -830 -1151 -171 -171 -284
-258 -435 -334 -138 -69 -213 -89 -321 -83 -67 4 -94 10 -149 37 -110 54 -221
181 -304 347 -138 278 -179 641 -141 1275 7 119 10 276 7 350 -8 203 -40 279
-131 314 -41 16 -48 16 -101 0 -72 -20 -143 -85 -176 -158 -23 -49 -24 -65
-27 -302 -2 -137 4 -440 13 -672 l17 -422 -83 -158 c-201 -378 -362 -549 -564
-600 -91 -22 -506 -26 -600 -4 -325 73 -650 459 -705 836 -7 48 -15 325 -20
695 -8 622 -14 715 -47 753 -49 54 -154 -18 -214 -148 -93 -199 -135 -492
-126 -860 8 -297 39 -490 122 -742 86 -262 203 -462 364 -624 224 -223 420
-297 756 -286 225 8 338 40 497 142 202 131 465 380 584 555 40 58 83 115 96
128 24 22 25 22 42 3 9 -10 37 -64 61 -120 24 -56 68 -136 97 -179 65 -95 235
-266 309 -309 226 -134 627 -81 925 123 255 174 550 465 797 787 54 70 102
127 106 127 5 0 11 -30 15 -66 25 -246 88 -443 192 -601 52 -79 193 -223 284
-292 242 -182 587 -275 1020 -275 230 0 361 20 555 85 296 99 507 237 862 563
114 105 185 156 215 156 10 0 90 -54 177 -120 88 -65 184 -135 214 -154 145
-93 355 -178 535 -217 140 -30 427 -37 580 -15 293 43 586 157 836 323 255
171 430 343 646 638 99 136 176 225 192 225 17 0 27 -54 38 -202 28 -405 139
-760 310 -986 97 -129 208 -211 355 -259 72 -24 94 -27 220 -27 118 1 155 5
237 27 211 56 422 160 668 328 341 234 639 520 934 898 75 95 136 169 136 164
0 -50 34 -398 46 -465 111 -653 585 -1057 1239 -1058 437 0 767 171 989 513
95 145 166 318 246 597 19 63 37 119 41 124 4 4 144 14 311 22 417 19 509 35
683 119 231 112 441 299 600 535 75 112 185 331 185 370 0 41 -62 90 -113 90
-33 0 -61 -35 -147 -181 -90 -151 -167 -254 -272 -359 -163 -163 -315 -258
-473 -292 -76 -17 -139 -21 -407 -25 -175 -3 -318 -2 -318 1 0 38 -76 507 -95
586 -82 339 -209 585 -400 775 -148 147 -306 243 -500 302 -83 25 -104 27
-265 27 -159 1 -180 -1 -231 -22 -114 -46 -174 -126 -205 -272 -19 -90 -21
-252 -5 -335 75 -378 365 -758 772 -1012 126 -79 275 -146 452 -204 209 -69
235 -81 243 -115 15 -60 -42 -242 -125 -401 -144 -273 -314 -452 -477 -503
-125 -38 -433 -48 -622 -19 -207 31 -455 238 -607 504 -62 109 -130 275 -150
365 -13 59 -18 150 -22 435 -6 394 3 555 37 656 42 125 164 300 262 374 95 72
156 137 163 175 14 79 -36 124 -140 125 -83 0 -160 -39 -245 -124 -122 -123
-209 -276 -334 -592 -118 -299 -277 -570 -493 -839 -469 -587 -967 -930 -1347
-930 -185 0 -324 59 -454 192 -180 184 -291 451 -331 798 -6 47 -12 103 -15
125 -3 22 -10 278 -15 569 -6 291 -13 531 -16 534 -11 11 -161 -19 -205 -41
-73 -36 -90 -78 -101 -250 -15 -232 -38 -326 -121 -492 -174 -345 -528 -775
-826 -1000 -108 -82 -283 -170 -377 -189 -171 -35 -608 -28 -767 13 -143 37
-369 161 -563 310 -48 37 -213 180 -284 246 -11 11 6 46 109 217 306 509 549
1107 830 2043 86 285 100 318 144 339 29 14 206 36 289 36 l27 0 -2 1293 -3
1292 -82 5 c-55 3 -87 10 -98 20 -14 15 -23 47 -65 245 -45 209 -184 583 -272
733 -42 73 -216 247 -289 290 -98 57 -162 75 -286 80 l-113 4 0 4269 0 4269
-1500 0 -1500 0 0 -3842z m3208 -4982 c64 -33 189 -150 247 -231 87 -122 133
-238 215 -538 54 -198 68 -280 51 -301 -33 -39 -219 0 -365 77 -171 90 -281
284 -325 577 -9 59 -41 399 -41 437 0 27 152 12 218 -21z m-1143 -3595 c314
-74 607 -104 1260 -126 226 -8 254 -11 249 -33 -59 -267 -172 -672 -274 -987
-104 -318 -244 -647 -436 -1025 -113 -222 -169 -313 -196 -318 -56 -11 -352
510 -491 863 -140 356 -244 747 -332 1243 -61 341 -62 395 -14 419 27 14 13
16 234 -36z m8083 -1001 c177 -49 312 -127 443 -259 231 -231 383 -583 428
-991 12 -112 5 -154 -28 -158 -90 -13 -418 160 -671 353 -311 239 -587 666
-592 916 -2 77 14 121 50 145 55 36 227 33 370 -6z"></path>
<path d="M39175 20184 c-195 -15 -505 -70 -735 -130 -681 -178 -1275 -487
-1663 -864 -390 -377 -633 -865 -707 -1415 -6 -44 -13 -177 -17 -295 -13 -485
46 -787 228 -1166 194 -405 629 -875 1032 -1115 303 -180 890 -436 1582 -689
718 -263 1069 -428 1217 -574 159 -157 168 -370 22 -526 -94 -100 -233 -161
-413 -179 -287 -30 -888 3 -1189 65 -217 44 -606 202 -912 369 -188 102 -292
168 -474 298 -98 70 -180 126 -181 125 -1 -2 -69 -106 -152 -233 -82 -126
-274 -419 -425 -650 -376 -576 -648 -1013 -648 -1042 0 -33 160 -177 380 -343
69 -52 164 -133 211 -180 72 -71 93 -99 128 -174 62 -131 195 -256 273 -256
13 0 56 16 97 35 119 57 134 55 463 -64 515 -185 1030 -290 1631 -332 227 -15
833 -7 1027 15 750 85 1288 264 1795 597 194 127 321 233 506 418 314 315 517
639 645 1026 84 257 109 450 108 855 0 396 -20 541 -109 801 -50 144 -179 401
-270 539 -283 425 -613 687 -1270 1010 -390 192 -754 337 -1361 546 -478 164
-758 283 -928 394 -172 112 -207 169 -214 347 -4 107 -3 116 22 167 65 134
232 215 501 246 132 15 459 12 636 -5 629 -61 1293 -271 1707 -541 155 -101
224 -128 243 -94 11 19 999 2022 999 2025 0 6 -467 309 -597 388 -237 144
-382 208 -757 332 -667 222 -963 264 -1881 270 -275 1 -522 1 -550 -1z"></path>
<path d="M28825 20153 c-401 -47 -648 -121 -983 -293 -173 -89 -386 -228 -547
-356 -141 -113 -405 -377 -519 -519 -190 -237 -358 -520 -474 -800 -70 -167
-113 -255 -125 -255 -7 0 -8 322 -4 1035 l7 1035 -1440 0 -1440 0 0 -2802 0
-2801 -118 -121 c-172 -176 -272 -335 -385 -616 -143 -353 -232 -720 -278
-1157 l-23 -213 -618 0 -618 0 0 3855 0 3855 -1500 0 -1500 0 0 -4480 0 -4480
1500 0 1500 0 0 415 0 415 238 0 c297 0 637 15 810 36 74 9 136 13 139 10 3
-3 1 -90 -6 -193 -20 -334 -13 -637 25 -1043 37 -401 86 -712 179 -1125 36
-159 65 -299 65 -309 0 -41 -321 -576 -438 -731 -239 -314 -805 -710 -1282
-898 -136 -53 -270 -95 -334 -103 -83 -12 -60 20 119 166 425 347 558 691 361
933 -179 220 -666 418 -1482 601 -305 69 -317 72 -346 96 l-23 20 28 25 c41
36 245 156 665 389 426 236 560 317 637 387 85 78 84 132 -3 172 -44 20 -63
22 -257 22 -173 -1 -232 -5 -338 -23 -615 -110 -1308 -415 -1552 -684 -67 -74
-95 -129 -102 -202 -8 -73 15 -133 73 -190 141 -142 436 -246 1149 -406 972
-219 1294 -373 1295 -622 1 -215 -257 -461 -729 -698 -282 -141 -457 -201
-786 -270 -252 -52 -274 -59 -298 -91 -30 -41 -13 -78 48 -109 47 -23 59 -25
190 -24 166 2 285 14 535 55 776 128 1537 465 2167 959 59 46 189 165 288 265
179 179 236 249 418 515 40 58 79 105 87 105 10 0 82 -134 205 -380 203 -406
258 -498 377 -640 90 -106 308 -322 428 -425 370 -315 841 -477 1324 -457 142
6 240 24 299 53 79 40 100 91 50 118 -40 20 -152 34 -368 46 -238 13 -326 25
-440 61 -210 66 -546 262 -698 408 -247 235 -508 654 -680 1091 -137 347 -167
485 -134 600 9 31 48 104 88 165 206 315 322 562 554 1175 60 157 111 288 114
292 3 4 539 12 1191 18 651 6 1186 12 1187 14 1 1 7 609 13 1351 5 743 15
1593 20 1890 20 1077 46 1241 270 1700 131 269 251 436 456 635 258 251 538
410 875 499 271 71 394 83 964 90 l490 6 3 1444 c1 795 -2 1449 -6 1453 -5 5
-54 17 -111 28 -78 15 -138 20 -259 19 -86 -1 -170 -4 -187 -6z m-5528 -6975
l5 -888 -231 0 -232 0 5 33 c3 17 15 115 26 217 33 291 96 721 130 883 45 216
165 538 247 661 l27 41 9 -30 c5 -17 11 -421 14 -917z m3 -1703 l0 -435 138 0
c215 0 240 -14 228 -124 -13 -124 -216 -686 -340 -941 -85 -173 -217 -375
-247 -375 -24 0 -65 173 -103 440 -66 454 -113 1035 -131 1605 -3 99 -8 199
-11 223 l-5 42 235 0 236 0 0 -435z m-3173 -1450 c4 -15 -47 -45 -290 -172
-247 -128 -397 -212 -567 -319 -241 -150 -288 -162 -405 -105 -169 83 -136
171 112 295 230 115 636 245 933 300 84 16 212 16 217 1z"></path>
<path d="M16905 6565 c-323 -57 -660 -287 -856 -585 -60 -91 -100 -191 -131
-330 -20 -92 -23 -131 -23 -320 0 -140 5 -236 13 -275 49 -225 140 -389 317
-573 268 -280 523 -392 890 -392 447 0 831 220 1069 612 222 365 229 900 18
1253 -178 298 -460 505 -804 591 -130 32 -367 41 -493 19z m340 -390 c106 -19
223 -63 302 -114 115 -74 239 -215 306 -347 41 -81 50 -160 44 -397 -5 -239
-18 -310 -81 -435 -84 -167 -294 -330 -495 -384 -100 -27 -295 -29 -396 -4
-349 85 -591 419 -612 841 -7 140 5 197 67 338 122 275 333 455 587 501 104
19 173 19 278 1z"></path>
<path d="M7650 6564 c-14 -2 -59 -9 -100 -15 -211 -30 -550 -235 -696 -420
-161 -203 -249 -460 -261 -757 -12 -298 53 -532 205 -734 144 -192 287 -320
460 -411 184 -96 360 -140 562 -140 361 0 690 153 938 436 214 246 296 475
295 832 0 181 -22 311 -74 446 -73 190 -274 428 -489 581 -124 88 -237 132
-415 163 -87 16 -373 28 -425 19z m370 -405 c49 -11 129 -41 189 -70 84 -41
117 -64 175 -123 118 -117 199 -278 226 -447 18 -110 8 -323 -18 -420 -65
-234 -226 -453 -395 -537 -121 -60 -200 -75 -392 -76 -140 0 -181 3 -235 19
-91 27 -220 116 -319 221 -66 69 -91 106 -131 187 -75 154 -94 246 -95 447 0
142 3 176 23 243 124 428 525 657 972 556z"></path>
<path d="M35124 6560 c-202 -37 -475 -191 -654 -370 -230 -230 -316 -440 -327
-800 -8 -264 15 -404 97 -575 26 -55 70 -132 98 -172 122 -171 338 -360 504
-442 165 -82 442 -130 642 -111 286 27 512 133 732 342 240 228 347 451 374
777 43 526 -189 981 -622 1219 -158 87 -358 131 -623 137 -93 2 -193 0 -221
-5z m371 -385 c106 -19 223 -63 302 -114 115 -74 239 -215 306 -347 41 -81 50
-160 44 -397 -5 -239 -18 -310 -81 -435 -64 -127 -218 -267 -367 -336 -212
-97 -505 -91 -708 14 -200 104 -355 325 -406 579 -22 107 -16 332 10 431 58
219 218 426 407 525 166 87 313 111 493 80z"></path>
<path d="M4422 6353 l3 -188 398 -3 397 -2 0 -1020 0 -1020 208 2 207 3 3
1017 2 1018 393 2 392 3 3 188 2 187 -1005 0 -1005 0 2 -187z"></path>
<path d="M9760 6318 c0 -737 -61 -1248 -180 -1512 -63 -141 -131 -213 -269
-287 -80 -43 -86 -58 -89 -238 -3 -137 -1 -159 13 -171 34 -29 143 0 315 83
93 44 115 61 195 141 135 137 227 317 294 578 69 266 90 465 98 906 l6 342
328 0 329 0 0 -1020 0 -1020 210 0 210 0 0 1210 0 1210 -730 0 -730 0 0 -222z"></path>
<path d="M11842 5333 l3 -1208 430 1 c482 1 611 12 768 64 111 38 177 80 251
161 192 212 241 647 105 938 -34 74 -119 183 -181 234 -118 96 -231 122 -583
137 -137 6 -278 13 -312 16 l-63 6 0 429 0 429 -210 0 -210 0 2 -1207z m664
-8 c247 -15 310 -25 360 -56 52 -32 114 -106 147 -177 31 -64 32 -72 32 -192
0 -120 -1 -128 -32 -192 -34 -73 -100 -145 -157 -172 -54 -25 -162 -35 -388
-36 l-208 0 0 420 c0 231 3 420 8 420 4 0 111 -7 238 -15z"></path>
<path d="M13882 5333 l3 -1208 208 -3 207 -2 0 520 0 520 186 -2 186 -3 86
-155 c47 -85 174 -317 283 -515 l196 -360 237 -3 c137 -1 236 1 236 7 0 5
-136 247 -303 537 -166 291 -324 572 -351 625 l-48 95 25 50 c67 132 389 682
554 946 40 65 73 124 73 132 0 8 -7 17 -16 20 -9 3 -107 6 -218 6 l-203 0
-172 -302 c-94 -167 -222 -391 -284 -498 l-112 -195 -177 -3 -178 -2 0 500 0
500 -210 0 -210 0 2 -1207z"></path>
<path d="M20020 6528 c0 -7 -9 -228 -20 -490 -28 -669 -50 -856 -131 -1101
-51 -158 -139 -337 -188 -386 -43 -43 -71 -51 -182 -51 l-79 0 2 -437 3 -438
188 -3 187 -2 0 250 0 250 790 0 790 0 2 -247 3 -248 188 -3 187 -2 0 440 0
440 -125 0 -125 0 0 1020 0 1020 -745 0 c-589 0 -745 -3 -745 -12z m1070
-1198 l0 -830 -495 0 c-272 0 -495 2 -495 5 0 3 23 50 50 105 157 312 223 620
270 1257 11 149 20 277 20 282 0 8 102 11 325 11 l325 0 0 -830z"></path>
<path d="M22510 6258 c-1 -787 -58 -1220 -198 -1492 -56 -109 -121 -177 -221
-231 -113 -61 -115 -66 -119 -255 -3 -151 -2 -159 18 -173 25 -17 76 -10 195
29 317 104 493 315 595 711 54 207 81 447 100 883 5 129 13 279 16 333 l6 97
324 0 324 0 0 -1020 0 -1020 210 0 210 0 0 1210 0 1210 -730 0 -730 0 0 -282z"></path>
<path d="M25305 6529 c-300 -16 -363 -34 -504 -145 -303 -237 -375 -643 -175
-977 22 -37 92 -117 171 -196 l133 -134 -209 -351 c-335 -562 -344 -579 -324
-590 9 -5 109 -11 222 -14 l206 -5 268 462 269 461 179 0 179 0 0 -460 0 -460
208 2 207 3 3 1208 2 1207 -342 -1 c-189 -1 -410 -6 -493 -10z m415 -760 l0
-391 -227 4 c-286 6 -335 18 -423 106 -46 46 -63 73 -89 141 -41 107 -47 160
-27 239 26 103 55 160 104 203 77 68 174 86 470 88 l192 1 0 -391z"></path>
<path d="M27920 6111 c0 -235 -5 -486 -10 -557 -27 -333 -86 -588 -197 -844
-84 -195 -95 -204 -256 -209 l-117 -3 2 -437 3 -436 188 -3 187 -2 0 250 0
250 810 0 810 0 2 -247 3 -248 188 -3 187 -2 0 440 0 440 -145 0 -145 0 0
1020 0 1020 -755 0 -755 0 0 -429z m1090 -782 l0 -831 -442 4 c-460 5 -498 8
-498 47 0 10 11 44 25 76 39 88 103 278 136 405 71 274 105 537 115 898 l7
232 329 0 328 0 0 -831z"></path>
<path d="M30132 5333 l3 -1208 750 0 750 0 3 188 2 187 -545 0 -545 0 0 330 0
330 418 2 417 3 3 168 2 167 -420 0 -420 0 0 330 0 330 523 2 522 3 3 188 2
187 -735 0 -735 0 2 -1207z"></path>
<path d="M32090 5331 c0 -665 3 -1211 8 -1213 14 -7 908 20 1029 32 141 13
202 29 293 76 131 68 247 188 315 326 47 96 65 167 65 257 0 194 -98 379 -271
508 -49 36 -89 69 -89 72 0 3 27 39 61 80 121 149 152 210 170 338 13 91 -3
266 -32 358 -42 132 -176 252 -347 310 -154 52 -222 58 -729 62 l-473 5 0
-1211z m1008 805 c121 -52 188 -227 148 -385 -20 -80 -53 -124 -115 -155 -72
-37 -146 -47 -393 -53 l-228 -6 0 312 0 313 273 -4 c236 -3 278 -6 315 -22z
m-18 -947 c112 -24 192 -86 242 -187 29 -59 33 -76 33 -152 0 -140 -55 -259
-137 -298 -73 -36 -131 -43 -425 -49 l-283 -6 0 358 0 358 258 -6 c141 -3 282
-11 312 -18z"></path>
<path d="M36923 6198 c7 -351 16 -472 43 -613 47 -236 149 -385 328 -476 92
-48 178 -62 371 -63 204 0 274 10 467 71 81 26 151 43 155 39 4 -4 9 -238 11
-521 l4 -515 209 0 209 0 0 1210 0 1210 -210 0 -210 0 -2 -502 -3 -502 -90
-37 c-135 -56 -233 -74 -410 -74 -136 0 -155 2 -203 24 -63 28 -165 133 -183
188 -9 27 -14 164 -16 471 l-4 432 -236 0 -236 0 6 -342z"></path>
<path d="M39342 5333 l3 -1208 750 0 750 0 3 188 2 187 -545 0 -545 0 0 330 0
330 418 2 417 3 3 168 2 167 -420 0 -420 0 0 330 0 330 500 0 500 0 0 190 0
190 -710 0 -710 0 2 -1207z"></path>
<path d="M41300 5330 l0 -1210 210 0 210 0 0 525 0 525 68 -5 c37 -4 113 -10
170 -14 56 -4 104 -10 106 -12 2 -2 116 -202 252 -444 136 -242 265 -470 286
-507 l39 -68 193 0 c229 0 237 3 217 71 -18 61 -65 146 -379 689 -151 261
-277 482 -279 491 -3 9 58 124 135 255 484 831 515 885 503 897 -8 9 -73 12
-217 12 l-206 0 -281 -497 -282 -498 -162 0 -163 0 0 500 0 500 -210 0 -210 0
0 -1210z"></path>
</g>
</svg><style>@media (prefers-color-scheme: light) { :root { filter: none; } }
</style></svg>